# Blender 3.3.1
# www.blender.org
mtllib den.mtl
o Plane
v -2.201546 0.000000 2.346598
v 2.107526 -0.012168 2.408110
v -2.201546 0.000000 -2.346598
v 2.107526 -0.012168 -2.408110
v -3.477686 -0.023254 0.000000
v 0.062427 0.000000 2.645584
v 2.186007 1.725604 0.000000
v 0.062427 0.000000 -2.645584
v -3.046834 0.000000 1.373964
v 1.168230 -0.001771 2.576700
v 2.209943 0.979682 -1.148137
v -0.910159 0.000000 -2.672938
v -3.046834 0.000000 -1.373964
v -0.910159 0.000000 2.672938
v 2.209943 0.979682 1.148137
v 1.168230 -0.001771 -2.576700
v 1.837891 -0.061172 2.509694
v 2.150097 0.169235 -1.753057
v -1.480854 0.000000 -2.637004
v -3.331307 -0.008950 -0.853804
v -0.412074 0.000000 2.740211
v 2.186415 1.501447 0.765361
v 0.663139 0.000000 -2.599932
v -3.331307 -0.008950 0.853804
v 0.663139 0.000000 2.599932
v 2.186415 1.501447 -0.765361
v -0.412074 0.000000 -2.740211
v -2.690860 0.000000 -1.776824
v -1.480854 0.000000 2.637004
v 2.150097 0.169235 1.753057
v 1.837891 -0.061172 -2.509694
v -2.201546 -0.086040 2.346598
v 2.101417 -0.093533 2.380812
v -2.201546 -0.086040 -2.346598
v 2.101417 -0.093533 -2.380812
v -3.472623 -0.109145 0.000000
v 0.066258 -0.083339 2.624539
v 2.148956 1.647950 0.000000
v 0.066258 -0.083339 -2.624539
v -0.007267 1.279144 0.000000
v -3.046835 -0.086035 1.372998
v 1.165299 -0.083930 2.551319
v 2.190594 0.930181 -1.080475
v -0.901434 -0.085456 -2.668039
v -3.046835 -0.086035 -1.372998
v -0.901434 -0.085456 2.668039
v 2.190594 0.930181 1.080475
v 1.165299 -0.083930 -2.551319
v -0.007461 0.758911 -1.105155
v -0.007461 0.758911 1.105155
v -1.711441 0.340186 0.000000
v 1.177953 1.913082 0.000000
v 1.165573 1.168626 1.130043
v -1.297012 0.138638 0.932899
v -1.297012 0.138638 -0.932899
v 1.165573 1.168626 -1.130043
v -2.690840 -0.086036 1.777616
v 1.832128 -0.142577 2.482437
v 2.136635 0.102254 -1.700758
v -1.479735 -0.086030 -2.636317
v -3.328760 -0.094928 -0.851776
v -0.399897 -0.084111 2.726800
v 2.158566 1.438022 0.714327
v 0.661331 -0.082704 -2.576274
v 0.041820 0.219266 -1.625064
v -0.005406 1.096426 0.619988
v -2.597256 -0.038646 -0.000000
v 0.545091 1.501126 0.000000
v -3.328760 -0.094928 0.851776
v 0.661331 -0.082704 2.576274
v 2.158566 1.438022 -0.714327
v -0.399897 -0.084111 -2.726800
v -2.690840 -0.086036 -1.777616
v -1.479735 -0.086030 2.636317
v 2.136635 0.102254 1.700758
v 1.832128 -0.142577 -2.482437
v -0.005406 1.096426 -0.619988
v 0.041820 0.219266 1.625064
v -0.849834 0.947471 0.000000
v 1.753200 1.849440 0.000000
v 1.174131 1.721434 0.659191
v 1.159917 0.180043 1.670179
v 0.603871 1.022433 1.188968
v 1.761319 1.002584 1.162944
v -1.619641 0.288058 0.561558
v -0.975603 -0.054446 1.403663
v -2.187129 -0.096119 0.934688
v -0.670461 0.489405 1.025077
v -0.975603 -0.054446 -1.403663
v -1.619641 0.288058 -0.561558
v -2.187129 -0.096119 -0.934688
v -0.670461 0.489405 -1.025077
v 1.159917 0.180043 -1.670179
v 1.174131 1.721434 -0.659191
v 0.603871 1.022433 -1.188968
v 1.761319 1.002584 -1.162944
v 1.747449 1.629496 -0.689617
v 0.550587 1.341272 -0.693234
v 0.538579 0.182011 -1.654670
v -0.844194 0.802375 -0.594657
v -2.486022 -0.058160 -0.568660
v -1.721987 -0.084923 -1.327564
v -0.461719 0.104840 1.508498
v -1.721987 -0.084923 1.327564
v -2.486022 -0.058160 0.568660
v 1.717653 0.145569 1.766773
v 0.538579 0.182011 1.654670
v 0.550587 1.341272 0.693234
v 1.747449 1.629496 0.689617
v -0.844194 0.802375 0.594657
v -0.461719 0.104840 -1.508498
v 1.717653 0.145569 -1.766773
v -2.201546 0.000000 -2.346598
v -2.690860 0.000000 -1.776824
v -2.201546 -0.086040 -2.346598
v -2.690840 -0.086036 -1.777616
v -2.201546 0.000000 2.346598
v -3.046834 0.000000 1.373964
v -2.690860 0.000000 1.776824
v -2.201546 -0.086040 2.346598
v -3.046835 -0.086035 1.372998
v -2.690840 -0.086036 1.777616
vn -0.0709 -0.9437 0.3232
vn 0.1183 -0.9685 0.2193
vn 0.3413 -0.9070 -0.2469
vn -0.4156 -0.8700 -0.2652
vn 0.5165 -0.8286 -0.2160
vn 0.0267 -0.4825 -0.8755
vn -0.2165 -0.5656 -0.7958
vn 0.3789 -0.9168 -0.1262
vn 0.1654 -0.9238 -0.3452
vn 0.3295 -0.6507 -0.6841
vn 0.0247 -0.9996 0.0155
vn 0.2783 -0.8484 0.4502
vn 0.3201 -0.7430 0.5879
vn -0.0051 -0.9597 0.2811
vn 0.2642 -0.7101 0.6526
vn -0.2367 -0.5840 0.7765
vn -0.0952 -0.6223 0.7770
vn -0.1209 -0.9492 0.2905
vn -0.4156 -0.8700 0.2652
vn 0.3983 -0.7526 0.5244
vn 0.3905 -0.8903 0.2344
vn 0.5165 -0.8286 0.2160
vn -0.0370 -0.9592 0.2804
vn 0.1982 -0.5712 0.7965
vn 0.0267 -0.4825 0.8755
vn 0.4449 -0.6286 0.6379
vn 0.5580 -0.8090 0.1850
vn 0.3413 -0.9070 0.2469
vn 0.0014 -0.9994 0.0337
vn 0.0599 -0.9981 0.0145
vn 0.3789 -0.9168 0.1262
vn 0.0006 -1.0000 0.0008
vn 0.0013 -0.9999 -0.0127
vn 0.1654 -0.9238 0.3452
vn 0.4056 -0.6645 -0.6276
vn 0.1706 -0.9806 -0.0962
vn 0.1183 -0.9685 -0.2193
vn 0.0013 -0.9999 0.0127
vn 0.0006 -1.0000 -0.0008
vn 0.0247 -0.9996 -0.0155
vn 0.0599 -0.9981 -0.0145
vn 0.0014 -0.9994 -0.0337
vn 0.2783 -0.8484 -0.4502
vn 0.0038 -0.5269 -0.8499
vn -0.0646 -0.9446 -0.3218
vn -0.0709 -0.9437 -0.3232
vn 0.1982 -0.5712 -0.7965
vn -0.0370 -0.9592 -0.2804
vn -0.0051 -0.9597 -0.2811
vn 0.3905 -0.8903 -0.2344
vn 0.3983 -0.7526 -0.5244
vn 0.2642 -0.7101 -0.6526
vn -0.1209 -0.9492 -0.2905
vn -0.0952 -0.6223 -0.7770
vn -0.2367 -0.5840 -0.7765
vn 0.5580 -0.8090 -0.1850
vn 0.4449 -0.6286 -0.6379
vn 0.3201 -0.7430 -0.5879
vn 0.1706 -0.9806 0.0962
vn 0.4056 -0.6645 0.6276
vn 0.3295 -0.6507 0.6841
vn -0.0646 -0.9446 0.3218
vn 0.0038 -0.5269 0.8499
vn -0.2165 -0.5656 0.7958
vn 0.3846 -0.3184 0.8664
vn 0.9899 -0.1403 -0.0180
vn -0.3731 -0.0061 -0.9278
vn -0.9847 -0.0456 -0.1683
vn 0.2017 -0.1789 0.9630
vn 0.9176 -0.3796 -0.1176
vn 0.0758 -0.2584 -0.9631
vn -0.8781 -0.0213 0.4780
vn 0.0449 -0.2860 0.9572
vn 0.9579 -0.1332 0.2542
vn -0.1240 -0.1216 -0.9848
vn -0.7501 -0.0007 -0.6614
vn -0.0587 -0.0359 0.9976
vn 0.9808 -0.1557 -0.1171
vn 0.0692 -0.3089 -0.9486
vn 0.0692 -0.3089 0.9486
vn 0.9808 -0.1557 0.1171
vn -0.0587 -0.0359 -0.9976
vn -0.8781 -0.0213 -0.4780
vn -0.1240 -0.1216 0.9848
vn 0.9579 -0.1332 -0.2542
vn 0.0449 -0.2860 -0.9572
vn -0.9847 -0.0456 0.1683
vn 0.0758 -0.2584 0.9631
vn 0.9176 -0.3796 0.1176
vn 0.2017 -0.1789 -0.9630
vn -0.3731 -0.0061 0.9278
vn 0.9899 -0.1403 0.0180
vn 0.3846 -0.3184 -0.8664
vn -0.7584 0.0029 -0.6518
vn -0.7584 0.0029 0.6518
vn -0.7501 -0.0007 0.6614
vt 0.000000 0.000000
vt 1.000000 0.000000
vt 0.000000 1.000000
vt 1.000000 1.000000
vt 0.000000 0.500000
vt 0.500000 0.000000
vt 1.000000 0.500000
vt 0.500000 1.000000
vt 0.000000 0.250000
vt 0.750000 0.000000
vt 1.000000 0.750000
vt 0.250000 1.000000
vt 0.000000 0.750000
vt 0.250000 0.000000
vt 1.000000 0.250000
vt 0.750000 1.000000
vt 0.875000 0.000000
vt 1.000000 0.875000
vt 0.125000 1.000000
vt 0.000000 0.625000
vt 0.375000 0.000000
vt 1.000000 0.375000
vt 0.625000 1.000000
vt 0.000000 0.375000
vt 0.625000 0.000000
vt 1.000000 0.625000
vt 0.375000 1.000000
vt 0.000000 0.875000
vt 0.125000 0.000000
vt 1.000000 0.125000
vt 0.875000 1.000000
vt 0.000000 0.000000
vt 1.000000 0.000000
vt 0.000000 1.000000
vt 1.000000 1.000000
vt 0.000000 0.500000
vt 0.500000 0.000000
vt 1.000000 0.500000
vt 0.500000 1.000000
vt 0.500000 0.500000
vt 0.000000 0.250000
vt 0.750000 0.000000
vt 1.000000 0.750000
vt 0.250000 1.000000
vt 0.000000 0.750000
vt 0.250000 0.000000
vt 1.000000 0.250000
vt 0.750000 1.000000
vt 0.500000 0.750000
vt 0.500000 0.250000
vt 0.250000 0.500000
vt 0.750000 0.500000
vt 0.750000 0.250000
vt 0.250000 0.250000
vt 0.250000 0.750000
vt 0.750000 0.750000
vt 0.000000 0.125000
vt 0.875000 0.000000
vt 1.000000 0.875000
vt 0.125000 1.000000
vt 0.000000 0.625000
vt 0.375000 0.000000
vt 1.000000 0.375000
vt 0.625000 1.000000
vt 0.500000 0.875000
vt 0.500000 0.375000
vt 0.125000 0.500000
vt 0.625000 0.500000
vt 0.000000 0.375000
vt 0.625000 0.000000
vt 1.000000 0.625000
vt 0.375000 1.000000
vt 0.000000 0.875000
vt 0.125000 0.000000
vt 1.000000 0.125000
vt 0.875000 1.000000
vt 0.500000 0.625000
vt 0.500000 0.125000
vt 0.375000 0.500000
vt 0.875000 0.500000
vt 0.750000 0.375000
vt 0.750000 0.125000
vt 0.625000 0.250000
vt 0.875000 0.250000
vt 0.250000 0.375000
vt 0.250000 0.125000
vt 0.125000 0.250000
vt 0.375000 0.250000
vt 0.250000 0.875000
vt 0.250000 0.625000
vt 0.125000 0.750000
vt 0.375000 0.750000
vt 0.750000 0.875000
vt 0.750000 0.625000
vt 0.625000 0.750000
vt 0.875000 0.750000
vt 0.875000 0.625000
vt 0.625000 0.625000
vt 0.625000 0.875000
vt 0.375000 0.625000
vt 0.125000 0.625000
vt 0.125000 0.875000
vt 0.375000 0.125000
vt 0.125000 0.125000
vt 0.125000 0.375000
vt 0.875000 0.125000
vt 0.625000 0.125000
vt 0.625000 0.375000
vt 0.875000 0.375000
vt 0.375000 0.375000
vt 0.375000 0.875000
vt 0.875000 0.875000
vt 0.000000 1.000000
vt 0.000000 0.875000
vt 0.000000 1.000000
vt 0.000000 0.875000
vt 0.000000 0.000000
vt 0.000000 0.250000
vt 0.000000 0.125000
vt 0.000000 0.000000
vt 0.000000 0.250000
vt 0.000000 0.125000
s 0
usemtl den
f 112/112/1 76/76/1 35/35/1 59/59/1
f 111/111/2 72/72/2 39/39/2 65/65/2
f 110/110/3 79/79/3 40/40/3 66/66/3
f 109/109/4 80/80/4 38/38/4 63/63/4
f 108/108/5 68/68/5 52/52/5 81/81/5
f 107/107/6 83/83/6 53/53/6 82/82/6
f 106/106/7 84/84/7 47/47/7 75/75/7
f 105/105/8 67/67/8 51/51/8 85/85/8
f 104/104/9 87/87/9 54/54/9 86/86/9
f 103/103/10 88/88/10 50/50/10 78/78/10
f 102/102/11 60/60/11 44/44/11 89/89/11
f 101/101/12 91/91/12 55/55/12 90/90/12
f 100/100/13 92/92/13 49/49/13 77/77/13
f 99/99/14 64/64/14 48/48/14 93/93/14
f 98/98/15 95/95/15 56/56/15 94/94/15
f 97/97/16 96/96/16 43/43/16 71/71/16
f 94/94/17 56/56/17 96/96/17 97/97/17
f 52/52/18 94/94/18 97/97/18 80/80/18
f 80/80/19 97/97/19 71/71/19 38/38/19
f 77/77/20 49/49/20 95/95/20 98/98/20
f 40/40/21 77/77/21 98/98/21 68/68/21
f 68/68/22 98/98/22 94/94/22 52/52/22
f 65/65/23 39/39/23 64/64/23 99/99/23
f 49/49/24 65/65/24 99/99/24 95/95/24
f 95/95/25 99/99/25 93/93/25 56/56/25
f 90/90/26 55/55/26 92/92/26 100/100/26
f 51/51/27 90/90/27 100/100/27 79/79/27
f 79/79/28 100/100/28 77/77/28 40/40/28
f 61/61/29 45/45/29 91/91/29 101/101/29
f 36/36/30 61/61/30 101/101/30 67/67/30
f 67/67/31 101/101/31 90/90/31 51/51/31
f 73/73/32 34/34/32 60/60/32 102/102/32
f 45/45/33 73/73/33 102/102/33 91/91/33
f 91/91/34 102/102/34 89/89/34 55/55/34
f 86/86/35 54/54/35 88/88/35 103/103/35
f 46/46/36 86/86/36 103/103/36 62/62/36
f 62/62/37 103/103/37 78/78/37 37/37/37
f 57/57/38 41/41/38 87/87/38 104/104/38
f 32/32/39 57/57/39 104/104/39 74/74/39
f 74/74/40 104/104/40 86/86/40 46/46/40
f 69/69/41 36/36/41 67/67/41 105/105/41
f 41/41/42 69/69/42 105/105/42 87/87/42
f 87/87/43 105/105/43 85/85/43 54/54/43
f 82/82/44 53/53/44 84/84/44 106/106/44
f 42/42/45 82/82/45 106/106/45 58/58/45
f 58/58/46 106/106/46 75/75/46 33/33/46
f 78/78/47 50/50/47 83/83/47 107/107/47
f 37/37/48 78/78/48 107/107/48 70/70/48
f 70/70/49 107/107/49 82/82/49 42/42/49
f 66/66/50 40/40/50 68/68/50 108/108/50
f 50/50/51 66/66/51 108/108/51 83/83/51
f 83/83/52 108/108/52 81/81/52 53/53/52
f 81/81/53 52/52/53 80/80/53 109/109/53
f 53/53/54 81/81/54 109/109/54 84/84/54
f 84/84/55 109/109/55 63/63/55 47/47/55
f 85/85/56 51/51/56 79/79/56 110/110/56
f 54/54/57 85/85/57 110/110/57 88/88/57
f 88/88/58 110/110/58 66/66/58 50/50/58
f 89/89/59 44/44/59 72/72/59 111/111/59
f 55/55/60 89/89/60 111/111/60 92/92/60
f 92/92/61 111/111/61 65/65/61 49/49/61
f 93/93/62 48/48/62 76/76/62 112/112/62
f 56/56/63 93/93/63 112/112/63 96/96/63
f 96/96/64 112/112/64 59/59/64 43/43/64
f 2/2/65 17/17/65 58/58/65 33/33/65
f 4/4/66 18/18/66 59/59/66 35/35/66
f 3/3/67 19/19/67 60/60/67 34/34/67
f 5/5/68 20/20/68 61/61/68 36/36/68
f 6/6/69 21/21/69 62/62/69 37/37/69
f 7/7/70 22/22/70 63/63/70 38/38/70
f 8/8/71 23/23/71 64/64/71 39/39/71
f 9/9/72 24/24/72 69/69/72 41/41/72
f 10/10/73 25/25/73 70/70/73 42/42/73
f 11/11/74 26/26/74 71/71/74 43/43/74
f 12/12/75 27/27/75 72/72/75 44/44/75
f 13/13/76 28/28/76 73/73/76 45/45/76
f 14/14/77 29/29/77 74/74/77 46/46/77
f 15/15/78 30/30/78 75/75/78 47/47/78
f 16/16/79 31/31/79 76/76/79 48/48/79
f 17/17/80 10/10/80 42/42/80 58/58/80
f 18/18/81 11/11/81 43/43/81 59/59/81
f 19/19/82 12/12/82 44/44/82 60/60/82
f 20/20/83 13/13/83 45/45/83 61/61/83
f 21/21/84 14/14/84 46/46/84 62/62/84
f 22/22/85 15/15/85 47/47/85 63/63/85
f 23/23/86 16/16/86 48/48/86 64/64/86
f 24/24/87 5/5/87 36/36/87 69/69/87
f 25/25/88 6/6/88 37/37/88 70/70/88
f 26/26/89 7/7/89 38/38/89 71/71/89
f 27/27/90 8/8/90 39/39/90 72/72/90
f 29/29/91 1/1/91 32/32/91 74/74/91
f 30/30/92 2/2/92 33/33/92 75/75/92
f 31/31/93 4/4/93 35/35/93 76/76/93
f 114/114/94 113/113/94 115/115/94 116/116/94
f 117/117/95 119/119/95 122/122/95 120/120/95
f 119/119/96 118/118/96 121/121/96 122/122/96
o Plane.001
v -2.201546 0.000000 2.346598
v 2.107526 -0.012168 2.408110
v -2.201546 0.000000 -2.346598
v 2.107526 -0.012168 -2.408110
v -3.477686 -0.023254 0.000000
v 0.062427 0.000000 2.645584
v 2.186007 1.725604 0.000000
v 0.062427 0.000000 -2.645584
v -0.039842 1.358779 0.000000
v -3.046834 0.000000 1.373964
v 1.168230 -0.001771 2.576700
v 2.209943 0.979682 -1.148137
v -0.910159 0.000000 -2.672938
v -3.046834 0.000000 -1.373964
v -0.910159 0.000000 2.672938
v 2.209943 0.979682 1.148137
v 1.168230 -0.001771 -2.576700
v -0.034275 0.817715 -1.161953
v -0.034275 0.817715 1.161953
v -1.752007 0.416062 0.000000
v 1.160630 1.997360 0.000000
v 1.160630 1.221106 1.198045
v -1.325383 0.206316 0.977818
v -1.325383 0.206316 -0.977818
v 1.160630 1.221106 -1.198045
v -2.690860 0.000000 1.776824
v 1.837891 -0.061172 2.509694
v 2.150097 0.169235 -1.753057
v -1.480854 0.000000 -2.637004
v -3.331307 -0.008950 -0.853804
v -0.412074 0.000000 2.740211
v 2.186415 1.501447 0.765361
v 0.663139 0.000000 -2.599932
v 0.027754 0.290961 -1.670505
v -0.037220 1.168583 0.654400
v -2.614847 0.045577 0.000000
v 0.504968 1.577238 0.000000
v -3.331307 -0.008950 0.853804
v 0.663139 0.000000 2.599932
v 2.186415 1.501447 -0.765361
v -0.412074 0.000000 -2.740211
v -2.690860 0.000000 -1.776824
v -1.480854 0.000000 2.637004
v 2.150097 0.169235 1.753057
v 1.837891 -0.061172 -2.509694
v -0.037220 1.168583 -0.654400
v 0.027754 0.290961 1.670505
v -0.889168 1.023994 0.000000
v 1.776702 1.932208 0.000000
v 1.160630 1.795278 0.701234
v 1.160630 0.246548 1.724764
v 0.585060 1.077323 1.252499
v 1.772813 1.052076 1.232380
v -1.655774 0.360077 0.591735
v -0.995022 0.024692 1.431285
v -2.197726 -0.012620 0.952534
v -0.702908 0.547419 1.079708
v -0.995022 0.024692 -1.431285
v -1.655774 0.360077 -0.591735
v -2.197726 -0.012620 -0.952534
v -0.702908 0.547419 -1.079708
v 1.160630 0.246548 -1.724764
v 1.160630 1.795278 -0.701234
v 0.585060 1.077323 -1.252499
v 1.772813 1.052076 -1.232380
v 1.767212 1.699129 -0.736131
v 0.516806 1.411142 -0.730382
v 0.534521 0.251171 -1.705693
v -0.881565 0.870972 -0.630724
v -2.500469 0.026017 -0.579070
v -1.728284 0.000000 -1.339863
v -0.484943 0.178753 1.545920
v -1.728284 0.000000 1.339863
v -2.500469 0.026017 0.579070
v 1.725496 0.214701 1.817390
v 0.534521 0.251171 1.705693
v 0.516806 1.411142 0.730382
v 1.767212 1.699129 0.736131
v -0.881565 0.870972 0.630724
v -0.484943 0.178753 -1.545920
v 1.725496 0.214701 -1.817390
vn 0.0710 0.9457 -0.3173
vn -0.1167 0.9695 -0.2157
vn -0.3421 0.9071 0.2450
vn 0.4149 0.8697 0.2673
vn -0.5100 0.8320 0.2182
vn -0.0296 0.4784 0.8776
vn 0.2146 0.5626 0.7984
vn -0.3791 0.9165 0.1273
vn -0.1652 0.9247 0.3430
vn -0.3297 0.6462 0.6883
vn -0.0201 0.9997 -0.0124
vn -0.2827 0.8470 -0.4502
vn -0.3204 0.7445 -0.5857
vn 0.0064 0.9616 -0.2745
vn -0.2633 0.7114 -0.6516
vn 0.2351 0.5879 -0.7740
vn 0.0929 0.6284 -0.7723
vn 0.1171 0.9503 -0.2885
vn 0.4149 0.8697 -0.2673
vn -0.3965 0.7516 -0.5272
vn -0.3899 0.8908 -0.2333
vn -0.5100 0.8320 -0.2182
vn 0.0371 0.9606 -0.2754
vn -0.1999 0.5666 -0.7994
vn -0.0296 0.4784 -0.8776
vn -0.4484 0.6304 -0.6337
vn -0.5574 0.8092 -0.1857
vn -0.3421 0.9071 -0.2450
vn 0.0004 0.9995 -0.0330
vn -0.0588 0.9982 -0.0144
vn -0.3791 0.9165 -0.1273
vn -0.0000 1.0000 -0.0000
vn -0.0004 0.9999 0.0155
vn -0.1652 0.9247 -0.3430
vn -0.4081 0.6555 0.6355
vn -0.1667 0.9816 0.0928
vn -0.1167 0.9695 0.2157
vn -0.0004 0.9999 -0.0155
vn -0.0201 0.9997 0.0124
vn -0.0588 0.9982 0.0144
vn 0.0004 0.9995 0.0330
vn -0.2827 0.8470 0.4502
vn -0.0027 0.5230 0.8523
vn 0.0634 0.9465 0.3164
vn 0.0710 0.9457 0.3173
vn -0.1999 0.5666 0.7994
vn 0.0371 0.9606 0.2754
vn 0.0064 0.9616 0.2745
vn -0.3899 0.8908 0.2333
vn -0.3965 0.7516 0.5272
vn -0.2633 0.7114 0.6516
vn 0.1171 0.9503 0.2885
vn 0.0929 0.6284 0.7723
vn 0.2351 0.5879 0.7740
vn -0.5574 0.8092 0.1857
vn -0.4484 0.6304 0.6337
vn -0.3204 0.7445 0.5857
vn -0.1667 0.9816 -0.0928
vn -0.4081 0.6555 -0.6355
vn -0.3297 0.6462 -0.6883
vn 0.0634 0.9465 -0.3164
vn -0.0027 0.5230 -0.8523
vn 0.2146 0.5626 -0.7984
vt 0.000000 0.000000
vt 1.000000 0.000000
vt 0.000000 1.000000
vt 1.000000 1.000000
vt 0.000000 0.500000
vt 0.500000 0.000000
vt 1.000000 0.500000
vt 0.500000 1.000000
vt 0.500000 0.500000
vt 0.000000 0.250000
vt 0.750000 0.000000
vt 1.000000 0.750000
vt 0.250000 1.000000
vt 0.000000 0.750000
vt 0.250000 0.000000
vt 1.000000 0.250000
vt 0.750000 1.000000
vt 0.500000 0.750000
vt 0.500000 0.250000
vt 0.250000 0.500000
vt 0.750000 0.500000
vt 0.750000 0.250000
vt 0.250000 0.250000
vt 0.250000 0.750000
vt 0.750000 0.750000
vt 0.000000 0.125000
vt 0.875000 0.000000
vt 1.000000 0.875000
vt 0.125000 1.000000
vt 0.000000 0.625000
vt 0.375000 0.000000
vt 1.000000 0.375000
vt 0.625000 1.000000
vt 0.500000 0.875000
vt 0.500000 0.375000
vt 0.125000 0.500000
vt 0.625000 0.500000
vt 0.000000 0.375000
vt 0.625000 0.000000
vt 1.000000 0.625000
vt 0.375000 1.000000
vt 0.000000 0.875000
vt 0.125000 0.000000
vt 1.000000 0.125000
vt 0.875000 1.000000
vt 0.500000 0.625000
vt 0.500000 0.125000
vt 0.375000 0.500000
vt 0.875000 0.500000
vt 0.750000 0.375000
vt 0.750000 0.125000
vt 0.625000 0.250000
vt 0.875000 0.250000
vt 0.250000 0.375000
vt 0.250000 0.125000
vt 0.125000 0.250000
vt 0.375000 0.250000
vt 0.250000 0.875000
vt 0.250000 0.625000
vt 0.125000 0.750000
vt 0.375000 0.750000
vt 0.750000 0.875000
vt 0.750000 0.625000
vt 0.625000 0.750000
vt 0.875000 0.750000
vt 0.875000 0.625000
vt 0.625000 0.625000
vt 0.625000 0.875000
vt 0.375000 0.625000
vt 0.125000 0.625000
vt 0.125000 0.875000
vt 0.375000 0.125000
vt 0.125000 0.125000
vt 0.125000 0.375000
vt 0.875000 0.125000
vt 0.625000 0.125000
vt 0.625000 0.375000
vt 0.875000 0.375000
vt 0.375000 0.375000
vt 0.375000 0.875000
vt 0.875000 0.875000
s 0
usemtl grass
f 203/203/97 150/150/97 126/126/97 167/167/97
f 202/202/98 156/156/98 130/130/98 163/163/98
f 201/201/99 157/157/99 131/131/99 170/170/99
f 200/200/100 154/154/100 129/129/100 171/171/100
f 199/199/101 172/172/101 143/143/101 159/159/101
f 198/198/102 173/173/102 144/144/102 174/174/102
f 197/197/103 166/166/103 138/138/103 175/175/103
f 196/196/104 176/176/104 142/142/104 158/158/104
f 195/195/105 177/177/105 145/145/105 178/178/105
f 194/194/106 169/169/106 141/141/106 179/179/106
f 193/193/107 180/180/107 135/135/107 151/151/107
f 192/192/108 181/181/108 146/146/108 182/182/108
f 191/191/109 168/168/109 140/140/109 183/183/109
f 190/190/110 184/184/110 139/139/110 155/155/110
f 189/189/111 185/185/111 147/147/111 186/186/111
f 188/188/112 162/162/112 134/134/112 187/187/112
f 185/185/113 188/188/113 187/187/113 147/147/113
f 143/143/114 171/171/114 188/188/114 185/185/114
f 171/171/115 129/129/115 162/162/115 188/188/115
f 168/168/116 189/189/116 186/186/116 140/140/116
f 131/131/117 159/159/117 189/189/117 168/168/117
f 159/159/118 143/143/118 185/185/118 189/189/118
f 156/156/119 190/190/119 155/155/119 130/130/119
f 140/140/120 186/186/120 190/190/120 156/156/120
f 186/186/121 147/147/121 184/184/121 190/190/121
f 181/181/122 191/191/122 183/183/122 146/146/122
f 142/142/123 170/170/123 191/191/123 181/181/123
f 170/170/124 131/131/124 168/168/124 191/191/124
f 152/152/125 192/192/125 182/182/125 136/136/125
f 127/127/126 158/158/126 192/192/126 152/152/126
f 158/158/127 142/142/127 181/181/127 192/192/127
f 164/164/128 193/193/128 151/151/128 125/125/128
f 136/136/129 182/182/129 193/193/129 164/164/129
f 182/182/130 146/146/130 180/180/130 193/193/130
f 177/177/131 194/194/131 179/179/131 145/145/131
f 137/137/132 153/153/132 194/194/132 177/177/132
f 153/153/133 128/128/133 169/169/133 194/194/133
f 148/148/134 195/195/134 178/178/134 132/132/134
f 123/123/128 165/165/128 195/195/128 148/148/128
f 165/165/135 137/137/135 177/177/135 195/195/135
f 160/160/136 196/196/136 158/158/136 127/127/136
f 132/132/137 178/178/137 196/196/137 160/160/137
f 178/178/138 145/145/138 176/176/138 196/196/138
f 173/173/139 197/197/139 175/175/139 144/144/139
f 133/133/140 149/149/140 197/197/140 173/173/140
f 149/149/141 124/124/141 166/166/141 197/197/141
f 169/169/142 198/198/142 174/174/142 141/141/142
f 128/128/143 161/161/143 198/198/143 169/169/143
f 161/161/144 133/133/144 173/173/144 198/198/144
f 157/157/145 199/199/145 159/159/145 131/131/145
f 141/141/146 174/174/146 199/199/146 157/157/146
f 174/174/147 144/144/147 172/172/147 199/199/147
f 172/172/148 200/200/148 171/171/148 143/143/148
f 144/144/149 175/175/149 200/200/149 172/172/149
f 175/175/150 138/138/150 154/154/150 200/200/150
f 176/176/151 201/201/151 170/170/151 142/142/151
f 145/145/152 179/179/152 201/201/152 176/176/152
f 179/179/153 141/141/153 157/157/153 201/201/153
f 180/180/154 202/202/154 163/163/154 135/135/154
f 146/146/155 183/183/155 202/202/155 180/180/155
f 183/183/156 140/140/156 156/156/156 202/202/156
f 184/184/157 203/203/157 167/167/157 139/139/157
f 147/147/158 187/187/158 203/203/158 184/184/158
f 187/187/159 134/134/159 150/150/159 203/203/159
